<svg xmlns="http://www.w3.org/2000/svg" width="120.271" height="129.443" viewBox="0 0 120.271 129.443">
  <g id="Group_16" data-name="Group 16" transform="translate(-23 523)">
    <path id="Path_99" data-name="Path 99" d="M416.111,276.475c-.647-1.555-1.295-3.24-1.944-4.665-1.036-2.333-2.072-4.535-2.98-6.609l-.128-.128c-8.941-19.436-18.53-39.131-28.636-58.567l-.389-.778c-1.036-1.944-2.072-4.018-3.11-6.09a37.179,37.179,0,0,0-4.663-7.126,20.928,20.928,0,0,0-16.456-8.034,21.75,21.75,0,0,0-16.586,7.774,44.768,44.768,0,0,0-4.663,7.126c-1.038,2.074-2.074,4.148-3.11,6.09l-.389.778c-9.978,19.436-19.695,39.131-28.636,58.567l-.128.26c-.908,2.072-1.944,4.275-2.98,6.607q-.974,2.137-1.944,4.665a29.08,29.08,0,0,0-1.555,13.994,27.533,27.533,0,0,0,16.843,21.509,26.6,26.6,0,0,0,10.5,2.074,29.72,29.72,0,0,0,3.369-.259,34.233,34.233,0,0,0,12.958-4.406c5.312-2.98,10.366-7.256,16.068-13.475,5.7,6.219,10.884,10.495,16.066,13.475a34.233,34.233,0,0,0,12.958,4.406,29.719,29.719,0,0,0,3.369.259,26.149,26.149,0,0,0,10.5-2.074,27.479,27.479,0,0,0,16.843-21.509A24.459,24.459,0,0,0,416.111,276.475Zm-58.437,6.737c-7-8.811-11.531-17.1-13.086-24.1a20.874,20.874,0,0,1-.389-7.9,12.577,12.577,0,0,1,2.072-5.443,13.761,13.761,0,0,1,11.4-5.7c4.8,0,9.07,2.074,11.4,5.7a12.6,12.6,0,0,1,2.074,5.443,20.807,20.807,0,0,1-.389,7.9C369.206,265.979,364.671,274.271,357.674,283.213Zm51.7,6.09a19.257,19.257,0,0,1-11.791,15.16,19.63,19.63,0,0,1-9.847,1.295,25.453,25.453,0,0,1-9.847-3.369c-4.665-2.591-9.329-6.607-14.771-12.569,8.551-10.495,13.735-20.084,15.679-28.635a32.5,32.5,0,0,0,.647-11.014,21.033,21.033,0,0,0-3.5-8.811,21.832,21.832,0,0,0-18.27-9.2,22.169,22.169,0,0,0-18.27,9.2,21.032,21.032,0,0,0-3.5,8.811,26.9,26.9,0,0,0,.649,11.014c1.944,8.551,7.256,18.27,15.679,28.765-5.314,5.96-10.108,9.978-14.773,12.569a25.471,25.471,0,0,1-9.847,3.369,20.725,20.725,0,0,1-9.847-1.295,19.259,19.259,0,0,1-11.791-15.162,21.462,21.462,0,0,1,1.166-10.106c.389-1.3,1.036-2.591,1.685-4.146.906-2.074,1.944-4.276,2.98-6.479l.13-.259c8.94-19.306,18.529-39,28.506-58.179l.389-.778c1.036-1.944,2.072-4.018,3.108-5.96a28.489,28.489,0,0,1,3.629-5.7,13.6,13.6,0,0,1,20.731,0,28.489,28.489,0,0,1,3.629,5.7c1.036,1.942,2.072,4.016,3.108,5.96l.389.778c9.849,19.306,19.436,39,28.378,58.307v.13c1.036,2.074,1.944,4.4,2.98,6.479.647,1.555,1.3,2.85,1.684,4.146A21.871,21.871,0,0,1,409.373,289.3Z" transform="translate(-274.541 -707.478)" fill="#5ba73e"/>
    <path id="Path_100" data-name="Path 100" d="M337.183,239.839a7.937,7.937,0,1,1,7.938-7.937,7.921,7.921,0,0,1-7.938,7.937" transform="translate(-254.019 -681.919)" fill="#e9373f"/>
  </g>
</svg>
