<svg xmlns="http://www.w3.org/2000/svg" xmlns:xlink="http://www.w3.org/1999/xlink" viewBox="0 0 432.56 241.23"><defs><style>.cls-1{fill:#4a4849;opacity:0.75;}.cls-2{fill:#fef1f2;stroke:#333;}.cls-2,.cls-4{stroke-miterlimit:10;stroke-width:3px;}.cls-3{fill:url(#linear-gradient);}.cls-4{fill:none;stroke:#40403f;}.cls-5{fill:#e9373f;}.cls-6{font-size:65.16px;fill:#231f20;font-family:FranklinGothic-Medium, Franklin Gothic Medium;font-weight:500;}</style><linearGradient id="linear-gradient" x1="126.16" y1="3.82" x2="136.22" y2="15.35" gradientUnits="userSpaceOnUse"><stop offset="0" stop-color="#fff" stop-opacity="0"/><stop offset="0.77" stop-color="#231f20"/></linearGradient></defs><title>superhost-tag</title><g id="Layer_2" data-name="Layer 2"><path class="cls-1" d="M358.8,237.06,13.64,265.5,4.87,159,350,130.57m8.77,106.49L422,178.25l-72-47.68" transform="translate(0 -24.27)"/><circle class="cls-2" cx="131.43" cy="9.85" r="8.35"/><circle class="cls-3" cx="131.43" cy="9.85" r="7.27"/><path class="cls-4" d="M138.06,31.16c-47.24,32.5-1.63,106.82,34.48,88.08,36.86-19.13,47.14-57.75,144.14-14.32,71.26,31.92,100.72,2.08,112.14,35.5,6,17.63.06,30.57-19.78,35.94" transform="translate(0 -24.27)"/><path class="cls-5" d="M353.94,229.78,8.77,258.22,0,151.74l345.16-28.45m8.78,106.49L417.12,171l-72-47.68" transform="translate(0 -24.27)"/><text class="cls-6" transform="matrix(1, -0.08, 0.08, 1, 23.63, 202.12)">SUPERHOST</text></g></svg>