<svg xmlns="http://www.w3.org/2000/svg" xmlns:xlink="http://www.w3.org/1999/xlink" viewBox="0 0 432.56 241.23"><defs><style>.cls-1{fill:#4a4849;opacity:0.75;}.cls-2{fill:#fef1f2;stroke:#333;}.cls-2,.cls-4{stroke-miterlimit:10;stroke-width:3px;}.cls-3{fill:url(#linear-gradient);}.cls-4{fill:none;stroke:#40403f;}.cls-5{fill:#e9373f;}.cls-6{fill:#fff;}</style><linearGradient id="linear-gradient" x1="126.16" y1="3.82" x2="136.22" y2="15.35" gradientUnits="userSpaceOnUse"><stop offset="0" stop-color="#fff" stop-opacity="0"/><stop offset="0.77" stop-color="#231f20"/></linearGradient></defs><title>superhost-tag</title><g id="Layer_2" data-name="Layer 2"><path class="cls-1" d="M358.8,237.06,13.64,265.5,4.87,159,350,130.57m8.77,106.49L422,178.25l-72-47.68" transform="translate(0 -24.27)"/><circle class="cls-2" cx="131.43" cy="9.85" r="8.35"/><circle class="cls-3" cx="131.43" cy="9.85" r="7.27"/><path class="cls-4" d="M138.06,31.16c-47.24,32.5-1.63,106.82,34.48,88.08,36.86-19.13,47.14-57.75,144.14-14.32,71.26,31.92,100.72,2.08,112.14,35.5,6,17.63.06,30.57-19.78,35.94" transform="translate(0 -24.27)"/><path class="cls-5" d="M353.94,229.78,8.77,258.22,0,151.74l345.16-28.45m8.78,106.49L417.12,171l-72-47.68" transform="translate(0 -24.27)"/><path class="cls-6" d="M40.67,223.42a20.12,20.12,0,0,1-7.15-.61,14.63,14.63,0,0,1-5.64-3,12.61,12.61,0,0,1-3.53-4.94l9.84-2.62a5,5,0,0,0,2.3,2.29,6.4,6.4,0,0,0,3.57.65,5.45,5.45,0,0,0,3.16-1.1,2.57,2.57,0,0,0,1-2.26,2.25,2.25,0,0,0-1.4-1.89,12.57,12.57,0,0,0-4.32-.86L36.87,209q-5.88-.53-9.21-3.1a9.37,9.37,0,0,1-3.69-7,11,11,0,0,1,.64-4.84,10.73,10.73,0,0,1,2.66-4,14.17,14.17,0,0,1,4.36-2.81A18.33,18.33,0,0,1,37.31,186a18.8,18.8,0,0,1,6.79.61,14.11,14.11,0,0,1,5.37,2.88,11.69,11.69,0,0,1,3.28,4.82L43,196.89a5.07,5.07,0,0,0-2-2.15,5.15,5.15,0,0,0-3-.59,4.81,4.81,0,0,0-2.83,1,2.42,2.42,0,0,0-.87,2.12,2,2,0,0,0,1.28,1.7,13.74,13.74,0,0,0,4.3.86l1.62.13q6,.51,9.37,3.09a9.31,9.31,0,0,1,3.72,7,11.1,11.1,0,0,1-.69,5,11.31,11.31,0,0,1-2.75,4.11A14.62,14.62,0,0,1,46.62,222,19.5,19.5,0,0,1,40.67,223.42Z" transform="translate(0 -24.27)"/><path class="cls-6" d="M77.29,220.41A17.35,17.35,0,0,1,68.46,219a14.52,14.52,0,0,1-6.25-5.42,18.87,18.87,0,0,1-2.77-8.82l-1.6-19.5,10.85-.9,1.62,19.71a8,8,0,0,0,1.92,5,5.61,5.61,0,0,0,8.33-.68,8,8,0,0,0,1.07-5.25L80,183.45l10.85-.9,1.61,19.51a19.85,19.85,0,0,1-.6,7A15.52,15.52,0,0,1,89,214.75a14.48,14.48,0,0,1-4.94,3.89A18.75,18.75,0,0,1,77.29,220.41Z" transform="translate(0 -24.27)"/><path class="cls-6" d="M101.62,230.2l-4-48.2,10-.83.75,5a13.22,13.22,0,0,1,10.68-7,14.09,14.09,0,0,1,6.41.92,16,16,0,0,1,5.38,3.51,18.54,18.54,0,0,1,3.89,5.61A22.31,22.31,0,0,1,135.92,204a19.22,19.22,0,0,1-3,6.35,16.14,16.14,0,0,1-5,4.46,15.39,15.39,0,0,1-6.47,2,13.12,13.12,0,0,1-5.76-.73,11.61,11.61,0,0,1-4.55-3.11l1.35,16.37Zm16.8-23a7.2,7.2,0,0,0,3.94-1.49,8.31,8.31,0,0,0,2.53-3.43,10,10,0,0,0,.66-4.65,10.2,10.2,0,0,0-1.42-4.54,8.18,8.18,0,0,0-3.06-3,7.53,7.53,0,0,0-8,.66,8.24,8.24,0,0,0-2.54,3.43,10.21,10.21,0,0,0-.65,4.71,9.9,9.9,0,0,0,1.41,4.47,8.21,8.21,0,0,0,3.06,3A7.12,7.12,0,0,0,118.42,207.16Z" transform="translate(0 -24.27)"/><path class="cls-6" d="M161.11,213.5a19.31,19.31,0,0,1-7.44-.76,17.12,17.12,0,0,1-6.11-3.42,17.51,17.51,0,0,1-4.29-5.68,21.05,21.05,0,0,1-2-7.48,19.55,19.55,0,0,1,.76-7.5,18.32,18.32,0,0,1,3.3-6.24,17.23,17.23,0,0,1,5.37-4.4,17.83,17.83,0,0,1,6.95-2,18.65,18.65,0,0,1,7.36.77,16,16,0,0,1,5.92,3.43,17.68,17.68,0,0,1,4.09,5.77,22.92,22.92,0,0,1,1.91,7.75l.2,2.39-24.5,2a9.25,9.25,0,0,0,3,4.82,6.61,6.61,0,0,0,4.87,1.38,7.93,7.93,0,0,0,3.69-1.18,8.7,8.7,0,0,0,2.68-2.83L177,202.13a14.52,14.52,0,0,1-3.33,5.61,18.1,18.1,0,0,1-5.54,3.94A20.54,20.54,0,0,1,161.11,213.5Zm-2.76-29.33a6.11,6.11,0,0,0-4.28,2.06,8.78,8.78,0,0,0-2,5l13.32-1.1a8.79,8.79,0,0,0-2.63-4.64A5.81,5.81,0,0,0,158.35,184.17Z" transform="translate(0 -24.27)"/><path class="cls-6" d="M183.66,210.63l-2.92-35.48,10-.82.87,5.62a10.48,10.48,0,0,1,3.15-4.82,9,9,0,0,1,5.13-2,11.23,11.23,0,0,1,1.74,0,5.58,5.58,0,0,1,1.57.34L203,184.31a7.4,7.4,0,0,0-1.53-.25,13.76,13.76,0,0,0-1.57,0q-3.74.32-5.42,2.56a8.91,8.91,0,0,0-1.37,6.25l1.39,16.84Z" transform="translate(0 -24.27)"/><path class="cls-6" d="M210.69,208.41l-4.1-49.8,10.85-.9,1.5,18.18a11.25,11.25,0,0,1,3.8-3.9,12.25,12.25,0,0,1,5.58-1.77,11.78,11.78,0,0,1,6.78,1.32,12.36,12.36,0,0,1,4.83,4.87,19,19,0,0,1,2.22,7.82l1.76,21.44-10.85.89-1.64-19.9a7.93,7.93,0,0,0-1.84-4.85,4.77,4.77,0,0,0-4.11-1.5,5.73,5.73,0,0,0-3.09,1.13,6.14,6.14,0,0,0-2,2.54,7,7,0,0,0-.52,3.43l1.65,20.1Z" transform="translate(0 -24.27)"/><path class="cls-6" d="M268.36,204.66a19.44,19.44,0,0,1-7.54-.79,18.09,18.09,0,0,1-6.31-3.43,17.77,17.77,0,0,1-4.45-5.6A20.15,20.15,0,0,1,248.87,180a18.23,18.23,0,0,1,9.23-10.81,20.55,20.55,0,0,1,15-1.27,18.11,18.11,0,0,1,10.77,9.1A20.16,20.16,0,0,1,285,191.86a18.25,18.25,0,0,1-3.51,6.29,18.74,18.74,0,0,1-5.73,4.46A19.85,19.85,0,0,1,268.36,204.66Zm-.67-9.8a7.28,7.28,0,0,0,3.9-1.49,8.12,8.12,0,0,0,2.56-3.43,9.91,9.91,0,0,0,.66-4.65,10.07,10.07,0,0,0-1.41-4.54,8.07,8.07,0,0,0-3.1-3,7.43,7.43,0,0,0-8,.66,8.05,8.05,0,0,0-2.56,3.43,10.09,10.09,0,0,0-.65,4.71,9.89,9.89,0,0,0,1.4,4.47,8.16,8.16,0,0,0,3.1,3A7.18,7.18,0,0,0,267.69,194.86Z" transform="translate(0 -24.27)"/><path class="cls-6" d="M306.44,201.52a20.12,20.12,0,0,1-7.15-.61,14.63,14.63,0,0,1-5.64-3,12.61,12.61,0,0,1-3.53-4.94l9.84-2.62a5.05,5.05,0,0,0,2.3,2.29,6.51,6.51,0,0,0,3.58.65,5.57,5.57,0,0,0,3.16-1.1,2.54,2.54,0,0,0,1-2.26,2.25,2.25,0,0,0-1.39-1.9,13,13,0,0,0-4.33-.85l-1.62-.13q-5.88-.53-9.2-3.1a9.37,9.37,0,0,1-3.69-7,10.81,10.81,0,0,1,.64-4.84,10.59,10.59,0,0,1,2.65-4,14.17,14.17,0,0,1,4.36-2.81,18.4,18.4,0,0,1,5.69-1.34,18.63,18.63,0,0,1,6.79.61,14.07,14.07,0,0,1,5.36,2.88,11.59,11.59,0,0,1,3.28,4.82L308.75,175a5.07,5.07,0,0,0-2-2.15,5.15,5.15,0,0,0-3-.59,4.84,4.84,0,0,0-2.83,1,2.41,2.41,0,0,0-.86,2.12,2,2,0,0,0,1.28,1.7,13.73,13.73,0,0,0,4.29.86l1.62.13q6,.51,9.37,3.08a9.35,9.35,0,0,1,3.72,7,11.11,11.11,0,0,1-.69,5,11.29,11.29,0,0,1-2.74,4.11,14.74,14.74,0,0,1-4.52,2.89A19.57,19.57,0,0,1,306.44,201.52Z" transform="translate(0 -24.27)"/><path class="cls-6" d="M342,198.59q-6,.49-9.5-2.53t-4-9.22L327.27,172l-5.86.48-.73-8.85,5.86-.49-1-12.11,10.85-.9,1,12.12,9.12-.75.73,8.85-9.12.75,1.11,13.52a5.55,5.55,0,0,0,1.3,3.48,3.7,3.7,0,0,0,3.16,1,9.67,9.67,0,0,0,2.27-.49,12.51,12.51,0,0,0,2.3-1l2.34,8.12a19.52,19.52,0,0,1-3.8,1.89A17.43,17.43,0,0,1,342,198.59Z" transform="translate(0 -24.27)"/></g></svg>